<?xml version="1.0" encoding="utf-8"?>
<!-- Generator: Adobe Illustrator 16.0.0, SVG Export Plug-In . SVG Version: 6.00 Build 0)  -->
<!DOCTYPE svg PUBLIC "-//W3C//DTD SVG 1.1//EN" "http://www.w3.org/Graphics/SVG/1.1/DTD/svg11.dtd">
<svg version="1.1" id="Layer_1" xmlns="http://www.w3.org/2000/svg" xmlns:xlink="http://www.w3.org/1999/xlink" x="0px" y="0px"
	 width="146px" height="146px" viewBox="0 0 146 146" enable-background="new 0 0 146 146" xml:space="preserve">
<path fill="#545583" d="M123.953,30.433L123.939,3l-20.236,11.684c0.001,0.001,0.003,0.002,0.004,0.003
	C94.482,9.983,84.045,7.328,73,7.328c-11.045,0-21.482,2.655-30.707,7.358c0.001-0.001,0.003-0.002,0.004-0.003L22.06,3
	l-0.013,27.433C11.544,42.383,5.164,58.041,5.164,75.164C5.164,112.568,35.595,143,73,143s67.836-30.432,67.836-67.836
	C140.836,58.041,134.456,42.383,123.953,30.433z M119.991,9.843l0.008,16.453c-3.709-3.569-7.822-6.719-12.263-9.378L119.991,9.843z
	 M105.758,15.779c0.003,0.002,0.006,0.003,0.009,0.005c-0.005-0.003-0.01-0.006-0.015-0.008
	C105.754,15.777,105.756,15.778,105.758,15.779z M40.242,15.779c0.002-0.001,0.004-0.002,0.005-0.003
	c-0.004,0.002-0.009,0.005-0.014,0.008C40.236,15.782,40.239,15.781,40.242,15.779z M26.008,9.843l12.255,7.075
	c0.002-0.001,0.004-0.002,0.006-0.003c-4.443,2.659-8.558,5.811-12.269,9.381L26.008,9.843z M24.024,28.275
	c0.012-0.013,0.024-0.025,0.036-0.037c-0.013,0.013-0.025,0.025-0.038,0.039C24.022,28.276,24.023,28.276,24.024,28.275z
	 M73,139.049c-35.226,0-63.884-28.658-63.884-63.885c0-35.226,28.658-63.885,63.884-63.885c35.226,0,63.885,28.659,63.885,63.885
	C136.885,110.391,108.226,139.049,73,139.049z M33.414,100.742c0.555-0.371,0.914-0.291,1.173,0.098
	c0.259,0.389,0.196,0.752-0.358,1.121l-0.321,0.215l0.771,1.154l0.244-0.162c1.243-0.83,1.545-1.916,0.752-3.102
	c-0.793-1.188-1.911-1.324-3.153-0.494c-2.219,1.482-0.925,4.068-2.522,5.135c-0.555,0.371-0.917,0.26-1.177-0.127
	c-0.26-0.389-0.223-0.766,0.332-1.137l0.555-0.371l-0.771-1.154l-0.477,0.32c-1.243,0.83-1.538,1.924-0.737,3.123
	c0.801,1.199,1.926,1.346,3.168,0.516C33.11,104.395,31.816,101.809,33.414,100.742z M40.163,105.967l-0.9-1.057l-5.484,4.674
	c-0.507,0.432-0.881,0.365-1.184,0.01s-0.311-0.734,0.197-1.168l5.484-4.672l-0.952-1.117l-5.413,4.611
	c-1.137,0.969-1.302,2.092-0.368,3.188c0.935,1.098,2.069,1.113,3.207,0.145L40.163,105.967z M41.738,112.313l0.826-0.889
	c1.016-1.096,1.042-2.182-0.034-3.182l-1.583-1.469l-6.353,6.844l1.076,0.998l2.387-2.57l0.508,0.471
	C39.64,113.514,40.722,113.408,41.738,112.313z M38.964,111.066l2.15-2.318l0.509,0.473c0.342,0.318,0.382,0.646-0.071,1.137
	l-0.953,1.025c-0.454,0.488-0.785,0.473-1.127,0.156L38.964,111.066z M46.238,115.68l0.718-0.979
	c0.883-1.205,0.784-2.289-0.399-3.156l-1.743-1.277l-5.522,7.529l1.184,0.869l2.075-2.83l0.56,0.41
	C44.292,117.113,45.354,116.885,46.238,115.68z M44.999,114.887c-0.395,0.537-0.726,0.561-1.102,0.283l-0.56-0.41l1.87-2.549
	l0.56,0.41c0.376,0.275,0.455,0.598,0.06,1.137L44.999,114.887z M50.931,114.24c-1.253-0.711-2.359-0.355-3.095,0.945l-2.392,4.225
	c-0.736,1.299-0.472,2.43,0.781,3.141c1.253,0.709,2.359,0.354,3.095-0.945l2.393-4.225C52.449,116.08,52.185,114.949,50.931,114.24
	z M50.482,116.576l-2.484,4.387c-0.329,0.58-0.708,0.656-1.115,0.428c-0.406-0.23-0.537-0.596-0.208-1.176l2.484-4.389
	c0.329-0.58,0.709-0.656,1.115-0.426S50.811,115.996,50.482,116.576z M55.805,116.736l-2.045-0.852l-3.587,8.621l1.354,0.564
	l1.461-3.51l0.468,0.193c0.616,0.258,0.764,0.666,0.431,1.467l-0.564,1.354c-0.292,0.701-0.299,0.857-0.317,1.111l1.379,0.572
	c-0.002-0.375,0.114-0.689,0.288-1.107l0.553-1.33c0.374-0.898,0.424-1.645-0.135-2.209c0.721-0.033,1.246-0.494,1.615-1.379
	l0.282-0.678C57.54,118.225,57.208,117.32,55.805,116.736z M55.576,119.127l-0.354,0.85c-0.288,0.689-0.688,0.781-1.192,0.572
	l-0.529-0.221l1.102-2.646l0.653,0.27C55.735,118.152,55.832,118.51,55.576,119.127z M58.068,119.072l1.475,0.422l-2.198,7.697
	l1.411,0.402l2.198-7.697l1.476,0.422l0.366-1.283l-4.362-1.246L58.068,119.072z M65.355,120.898l1.524,0.176l-0.919,7.953
	l1.458,0.17l0.92-7.953l1.524,0.176l0.153-1.326l-4.507-0.52L65.355,120.898z M73.845,120.123l0.064,4.002l-1.667,0.027
	l-0.064-4.002l-1.468,0.023l0.151,9.34l1.467-0.025l-0.064-4.002l1.667-0.027l0.064,4.002l1.494-0.023l-0.151-9.338L73.845,120.123z
	 M76.623,120l0.889,9.295l1.461-0.139l-0.891-9.297L76.623,120z M81.014,121.611c-0.121-0.654,0.095-0.953,0.554-1.039
	c0.46-0.084,0.767,0.115,0.89,0.771l0.07,0.379l1.365-0.252l-0.055-0.289c-0.273-1.469-1.15-2.174-2.554-1.914
	c-1.403,0.262-1.969,1.236-1.694,2.705c0.488,2.623,3.373,2.451,3.725,4.34c0.122,0.656-0.122,0.945-0.581,1.031
	c-0.46,0.086-0.792-0.096-0.913-0.752l-0.123-0.656l-1.363,0.254l0.104,0.564c0.273,1.469,1.164,2.17,2.581,1.908
	c1.416-0.266,1.994-1.24,1.721-2.709C84.252,123.33,81.366,123.5,81.014,121.611z M91.557,118.729
	c-0.517-1.402-1.475-1.916-2.851-1.408l-2.028,0.748l3.232,8.762l1.377-0.508l-1.215-3.291l0.651-0.24
	c1.377-0.51,1.771-1.521,1.254-2.924L91.557,118.729z M90.262,121.539l-0.65,0.24l-1.095-2.967l0.651-0.24
	c0.438-0.162,0.749-0.049,0.98,0.576l0.484,1.314C90.863,121.09,90.699,121.377,90.262,121.539z M99.188,121.512l-0.655-1.283
	c-0.444-0.867-0.979-1.387-1.772-1.326c0.442-0.57,0.43-1.27-0.008-2.123l-0.334-0.654c-0.656-1.283-1.56-1.615-2.914-0.922
	l-1.972,1.008l4.253,8.314l1.307-0.668l-1.732-3.385l0.452-0.232c0.594-0.303,1.001-0.15,1.396,0.621l0.668,1.307
	c0.347,0.678,0.461,0.783,0.642,0.961l1.331-0.68C99.559,122.207,99.395,121.916,99.188,121.512z M95.264,119.023l-0.512,0.262
	l-1.306-2.555l0.63-0.322c0.463-0.236,0.799-0.078,1.103,0.516l0.419,0.82C95.938,118.408,95.75,118.773,95.264,119.023z
	 M101.209,113.092c-0.836-1.238-1.967-1.506-3.16-0.699c-1.195,0.805-1.37,1.953-0.535,3.191l2.717,4.027
	c0.836,1.238,1.965,1.506,3.16,0.699c1.194-0.805,1.369-1.953,0.533-3.191L101.209,113.092z M102.645,119.205
	c-0.387,0.262-0.771,0.215-1.146-0.338l-2.82-4.18c-0.374-0.555-0.271-0.928,0.115-1.189c0.388-0.262,0.772-0.215,1.146,0.338
	l2.82,4.18C103.133,118.57,103.031,118.943,102.645,119.205z M102.681,108.975l-1.129,0.938l4.554,5.479
	c0.46,0.555,0.283,0.928-0.076,1.227c-0.123,0.102-0.266,0.221-0.397,0.313l0.853,1.027c0.201-0.133,0.355-0.262,0.561-0.432
	c0.852-0.707,1.314-1.717,0.121-3.154L102.681,108.975z M110.295,112.791l-1.941-1.926l1.418-1.43l-0.947-0.939l-1.419,1.43
	l-1.847-1.832l1.785-1.799l-0.947-0.939l-2.818,2.84l6.63,6.578l2.819-2.842l-0.947-0.939L110.295,112.791z M115.287,105.633
	l-0.975-0.77l-0.859,1.09l1.048,0.826c0.524,0.414,0.531,0.793,0.241,1.16c-0.289,0.365-0.658,0.447-1.183,0.035l-3.96-3.123
	c-0.523-0.414-0.541-0.801-0.252-1.168c0.289-0.365,0.67-0.439,1.193-0.027l0.785,0.621l0.859-1.09l-0.712-0.563
	c-1.173-0.926-2.307-0.867-3.198,0.264c-0.893,1.133-0.685,2.248,0.488,3.174l3.814,3.006c1.173,0.926,2.306,0.867,3.197-0.264
	C116.668,107.672,116.461,106.557,115.287,105.633z M113.581,97.6l-1.134-0.703l-2.391,3.855l1.135,0.703l0.808-1.305l6.805,4.219
	l0.773-1.248l-6.805-4.217L113.581,97.6z M35.614,64.803l-7.438-2.181l1.071-3.655l-2.573-0.754l-1.072,3.654l-5.431-1.592
	l1.366-4.659l-2.574-0.754l-2.196,7.489l18.017,5.282L35.614,64.803z M41.495,52.16l-2.322-1.343l-2.551,4.412l-4.76-2.753
	l2.028-3.507l-2.323-1.342l-2.027,3.506l-4.528-2.618l2.551-4.411l-2.322-1.343l-4.028,6.966l16.255,9.398L41.495,52.16z
	 M47.938,45.207l-1.956-1.835l-3.486,3.716l-4.01-3.763l2.771-2.952l-1.956-1.836l-2.771,2.954l-3.813-3.579l3.486-3.716
	l-1.956-1.836l-5.505,5.867l13.691,12.848L47.938,45.207z M53.129,41.855c2.521-1.53,2.911-3.681,1.353-6.248l-4.925-8.117
	c-1.558-2.567-3.645-3.215-6.167-1.685L39.4,28.227l9.739,16.05L53.129,41.855z M44.735,28.127c0.803-0.487,1.534-0.366,2.229,0.779
	l5.064,8.346c0.696,1.146,0.464,1.852-0.338,2.339l-1.421,0.862l-6.957-11.464L44.735,28.127z M61.851,21.416l2.836,15.842
	l2.904-0.521l-2.835-15.842l3.036-0.544l-0.473-2.64l-8.977,1.606l0.472,2.641L61.851,21.416z M75.133,28.359l3.341,0.271
	l-0.653,8.02l2.994,0.244l1.523-18.712l-2.994-0.244l-0.652,8.02l-3.342-0.271l0.652-8.02l-2.94-0.239L71.54,36.139l2.941,0.24
	L75.133,28.359z M90.978,37.556l-4.796-1.722l1.857-5.175l3.812,1.368l0.906-2.524l-3.812-1.368l1.767-4.922l4.796,1.722
	l0.906-2.524l-7.573-2.719l-6.342,17.67l7.572,2.718L90.978,37.556z M107.763,48.966l1.825-1.699l-1.9-2.042l-1.963,1.827
	c-0.981,0.914-1.737,0.811-2.377,0.124c-0.639-0.688-0.688-1.448,0.293-2.362l7.422-6.907c0.982-0.914,1.758-0.829,2.396-0.143
	c0.641,0.688,0.669,1.467-0.313,2.381l-1.473,1.37l1.9,2.042l1.336-1.242c2.198-2.047,2.432-4.316,0.457-6.437
	c-1.973-2.12-4.253-2.051-6.452-0.004l-7.146,6.652c-2.198,2.047-2.433,4.315-0.458,6.437
	C103.283,51.083,105.563,51.013,107.763,48.966z M106.173,54.887l3.249-1.142l1.692,3.201l-2.772,2.043l1.391,2.632l15.195-11.43
	l-2.018-3.818l-18.003,6.118L106.173,54.887z M120.91,49.706l-7.73,5.694l-1.328-2.514L120.91,49.706z M110.422,64.793l0.678,2.871
	l15.662-3.699l0.709,3.002l2.61-0.616l-2.097-8.876l-2.609,0.617l0.709,3.001L110.422,64.793z M58.848,76.613
	c-3.281,0.014-5.94,2.607-5.93,5.785s2.688,5.752,5.968,5.742c3.28-0.012,5.94-2.604,5.931-5.781
	C64.806,79.18,62.128,76.604,58.848,76.613z M58.88,85.955c-2.077,0.008-3.771-1.592-3.778-3.564
	c-0.006-1.973,1.678-3.582,3.753-3.588c2.076-0.008,3.769,1.59,3.775,3.564C62.638,84.34,60.954,85.949,58.88,85.955z M65.63,61.77
	c0.007,2.298,2.346,4.09,5.323,4.08c2.977-0.011,5.303-1.818,5.295-4.114c-0.008-2.297-2.346-4.089-5.322-4.079
	C67.948,57.667,65.623,59.475,65.63,61.77z M74.064,61.742c0.004,1.019-1.455,1.916-3.119,1.923
	c-1.666,0.005-3.128-0.883-3.132-1.901c-0.003-0.904,1.276-1.917,3.119-1.924C72.775,59.834,74.062,60.838,74.064,61.742z
	 M128.102,82.334c-0.93-0.379-2.066,0.266-2.545,1.436c-0.48,1.17-0.113,2.426,0.813,2.805c0.926,0.381,2.064-0.266,2.545-1.436
	S129.028,82.713,128.102,82.334z M124.232,85.34c-0.082-0.412-0.225-0.82-0.47-1.166c-0.286-0.404-0.701-0.697-1.179-0.824
	c-0.636-0.172-1.366-0.074-1.908,0.311c-0.555,0.391-0.849,1.031-0.975,1.68c-0.428,2.201-1.995,2.133-2.35,3.768
	c-0.355,1.637,1.423,1.99,2.206,1.779c0.069-0.018,0.14-0.033,0.212-0.049c1.473-0.303,3.145-0.352,4.604,0.049
	c0.78,0.211,2.558-0.143,2.207-1.779C126.227,87.473,124.66,87.545,124.232,85.34z M122.756,79.83
	c-0.352,1.215,0.146,2.426,1.105,2.703c0.962,0.277,2.026-0.48,2.377-1.695c0.352-1.215-0.143-2.428-1.105-2.705
	C124.171,77.855,123.105,78.615,122.756,79.83z M120.068,82.533c0.957-0.277,1.455-1.488,1.104-2.703s-1.415-1.975-2.378-1.697
	s-1.46,1.49-1.105,2.705C118.041,82.053,119.105,82.811,120.068,82.533z M115.826,82.334c-0.926,0.379-1.289,1.635-0.812,2.805
	c0.481,1.17,1.619,1.816,2.545,1.436c0.926-0.379,1.289-1.635,0.812-2.805C117.89,82.6,116.752,81.955,115.826,82.334z
	 M22.681,78.133c-0.962,0.277-1.46,1.49-1.105,2.705c0.351,1.215,1.416,1.973,2.378,1.695c0.958-0.277,1.456-1.488,1.105-2.703
	S23.644,77.855,22.681,78.133z M30.467,89.107c-0.354-1.635-1.921-1.563-2.35-3.768c-0.081-0.412-0.224-0.82-0.469-1.166
	c-0.286-0.404-0.701-0.697-1.179-0.824c-0.636-0.172-1.367-0.074-1.909,0.311c-0.554,0.391-0.848,1.031-0.974,1.68
	c-0.428,2.201-1.995,2.133-2.349,3.768c-0.355,1.637,1.423,1.99,2.206,1.779c0.069-0.018,0.139-0.033,0.212-0.049
	c1.472-0.303,3.144-0.352,4.604,0.049C29.04,91.098,30.817,90.744,30.467,89.107z M22.256,83.77
	c-0.481-1.17-1.619-1.814-2.544-1.436s-1.289,1.635-0.812,2.805c0.481,1.17,1.619,1.816,2.544,1.436
	C22.371,86.195,22.734,84.939,22.256,83.77z M30.255,86.574c0.926,0.381,2.063-0.266,2.545-1.436s0.114-2.426-0.812-2.805
	c-0.93-0.379-2.068,0.266-2.545,1.436C28.962,84.939,29.329,86.195,30.255,86.574z M30.124,80.838
	c0.351-1.215-0.143-2.428-1.105-2.705c-0.963-0.277-2.027,0.482-2.378,1.697c-0.351,1.215,0.147,2.426,1.106,2.703
	C28.709,82.811,29.773,82.053,30.124,80.838z M40.176,75.164c0,0.09,0.002,0.178,0.003,0.266c-0.206,0.291-0.342,0.512-0.408,0.625
	c-0.241,0.33-0.951,1.453-0.945,3.262l0.019,5.635c0.004,1.137,0.764,1.645,1.516,1.641c0.15,0,0.275-0.02,0.359-0.033l0.041-0.006
	c0.069-0.008,0.146-0.016,0.227-0.016c0.691-0.004,1.295,0.404,1.614,1.008c0.063,0.117,0.115,0.244,0.154,0.375
	c0.055,0.186,0.084,0.383,0.085,0.588c0.003,1.088-0.822,1.977-1.839,1.98c-0.072,0-0.143-0.006-0.206-0.014
	c-0.07-0.008-0.142-0.014-0.215-0.014c-0.844,0.004-1.715,0.631-1.712,1.674l0.027,7.826c0.004,1.119,0.841,1.957,1.947,1.955
	c0.13,0,0.263-0.014,0.396-0.037c0.304-0.055,4.417-0.764,10.418-1.797c5.743,4.926,13.2,7.906,21.341,7.906
	c12.152,0,22.783-6.639,28.458-16.48c2.167-0.373,3.781-0.65,4.644-0.801c0.752-0.117,1.646-0.557,1.641-1.963
	c0-0.063,0.004-0.674,0.01-1.668c0.023-4.113,0.086-15.04,0.071-19.409c-0.003-1.163-0.436-2.294-0.526-2.52
	c-0.088-0.224-0.484-1.157-1.273-1.982c-1.401-1.472-2.876-2.833-4.42-4.087C95.967,49.096,85.258,42.341,73,42.341
	C54.901,42.341,40.176,57.064,40.176,75.164z M73,105.023c-6.491,0-12.5-2.088-17.405-5.619c9.833-1.693,22.883-3.939,33.073-5.693
	c3.246-0.559,6.25-1.076,8.843-1.523C92.111,99.939,83.141,105.023,73,105.023z M105.639,71.679
	c-0.006,2.194-0.016,4.751-0.027,7.206c-0.016,3.283-0.032,6.383-0.042,8.18c-0.004,0.736-0.008,1.266-0.009,1.523
	c-0.641,0.109-1.605,0.275-2.835,0.486c-1.04,0.18-2.271,0.393-3.659,0.631c-2.981,0.514-6.684,1.15-10.768,1.854
	c-11.387,1.959-25.208,4.34-34.991,6.023c-1.294,0.223-2.517,0.434-3.655,0.631c-4.53,0.779-7.704,1.326-8.573,1.477l-0.023-7.018
	c1.308-0.02,2.461-0.688,3.184-1.701c0.494-0.693,0.789-1.545,0.785-2.471c-0.006-2.113-1.548-3.857-3.529-4.115
	c-0.174-0.592-0.333-1.191-0.474-1.797l-0.013-3.861c-0.003-0.779,0.199-0.873,0.783-1.076l1.439-0.246l32.017-5.491v0.051
	c0.011,3.034,2.544,5.495,5.649,5.483c3.104-0.01,5.607-2.486,5.609-5.521c0.002-1.104-0.413-1.835-0.42-1.85l15.744-2.666
	l2.036-0.345l0.907-0.146C105.176,68.465,105.467,70.055,105.639,71.679z M83.418,70.152c0.412,0.335,0.904,0.915,0.906,1.781
	c0.006,1.83-1.534,3.322-3.434,3.33c-1.898,0.006-3.451-1.477-3.457-3.307c-0.002-0.617,0.046-0.716,0.139-1.043
	c0.204-0.653,0.68-1.296,2.75-1.563c0.184-0.023,0.367-0.034,0.553-0.035c0.958-0.004,1.885,0.302,2.541,0.835v0.001H83.418z
	 M98.258,59.267c1.917,1.384,3.814,2.996,5.657,4.868c0.079,0.221,0.157,0.442,0.231,0.666l-0.637,0.11l-2.33,0.395l-16.802,2.844
	c-0.989-0.655-2.241-1.022-3.509-1.019c-0.274,0.002-0.552,0.02-0.826,0.054c-1.445,0.187-3.387,0.646-4.293,2.427l-32.264,5.465
	c1.227-1.072,3.226-2.718,4.032-3.384c0.383-0.315,0.657-0.541,0.753-0.624c0.057-0.048,0.254-0.045,0.297-0.03
	c0.759,0.247,1.612,0.378,2.466,0.375c0.996-0.003,1.972-0.185,2.826-0.526c1.711-0.688,2.73-1.935,2.726-3.335
	c-0.002-0.858-0.406-1.663-1.124-2.311c-0.066-0.061-0.184-0.194-0.02-0.333c3.767-3.227,15.66-13.38,15.95-13.632
	c0.178-0.153,0.514-0.247,0.897-0.248C78.164,51.01,88.459,52.192,98.258,59.267z M85.777,50.785
	c-4.417-1.302-8.957-1.955-13.493-1.94c-0.917,0.004-1.741,0.28-2.321,0.781c-0.263,0.227-14.029,11.992-16.746,14.308
	c-0.371,0.318-0.62,0.651-0.745,0.996c-0.197,0.55,0.073,1.155,0.61,1.379c0.799,0.331,1.22,0.873,1.221,1.302
	c0.002,0.458-0.433,0.918-1.257,1.248c-0.599,0.24-1.297,0.367-2.021,0.37c-0.623,0.002-1.236-0.091-1.776-0.268
	c-0.014-0.005-0.493-0.188-0.872-0.187c-0.525,0.002-1.04,0.215-1.527,0.634c-0.092,0.078-0.355,0.294-0.72,0.597
	c-1.092,0.899-2.055,1.698-2.856,2.374C44.684,57.216,57.475,45.305,73,45.305c8.318,0,15.851,3.423,21.271,8.93
	C91.59,52.818,88.757,51.666,85.777,50.785z"/>
</svg>
