<?xml version="1.0" encoding="utf-8"?>
<!-- Generator: Adobe Illustrator 16.0.0, SVG Export Plug-In . SVG Version: 6.00 Build 0)  -->
<!DOCTYPE svg PUBLIC "-//W3C//DTD SVG 1.1//EN" "http://www.w3.org/Graphics/SVG/1.1/DTD/svg11.dtd">
<svg version="1.1" id="Layer_1" xmlns="http://www.w3.org/2000/svg" xmlns:xlink="http://www.w3.org/1999/xlink" x="0px" y="0px"
	 width="34.25px" height="31px" viewBox="0 0 34.25 31" enable-background="new 0 0 34.25 31" xml:space="preserve">
<g>
	<g>
		<polygon fill="#58595B" points="28.871,3.229 17.582,9.746 17.581,15.716 28.88,22.24 		"/>
	</g>
	<g>
		<polygon fill="#58595B" points="6.292,3.229 17.581,9.746 17.581,15.716 6.283,22.24 		"/>
	</g>
	<g>
		<polygon fill="#E6E7E8" points="17.581,15.716 17.582,30.177 30.104,22.947 		"/>
	</g>
	<g>
		<polygon fill="#FFFFFF" points="17.581,15.716 17.581,30.177 5.06,22.947 		"/>
	</g>
	<g>
		<path fill="#414042" d="M17.582,16.051l11.793,6.811L17.582,29.67L5.789,22.859L17.582,16.051 M17.582,15.438L4.729,22.859l0,0
			l12.853,7.421l12.853-7.421l0,0L17.582,15.438L17.582,15.438z"/>
	</g>
	<g>
		<path fill="#FFFFFF" d="M15.172,11.361c0.023,0.166,0.04,0.333,0.04,0.506c0,1.937-1.57,3.508-3.508,3.508
			c-1.937,0-3.507-1.571-3.507-3.508c0-0.173,0.018-0.34,0.041-0.506H15.172z"/>
		<path fill="#414042" d="M11.704,15.652c-2.087,0-3.784-1.698-3.784-3.785c0-0.163,0.013-0.336,0.042-0.544
			c0.02-0.138,0.138-0.24,0.276-0.24h6.934c0.138,0,0.256,0.103,0.275,0.238c0.029,0.205,0.043,0.379,0.043,0.546
			C15.49,13.954,13.792,15.652,11.704,15.652z M8.486,11.64c-0.008,0.081-0.011,0.154-0.011,0.228c0,1.78,1.448,3.229,3.229,3.229
			c1.781,0,3.229-1.449,3.229-3.229c0-0.073-0.003-0.147-0.009-0.228H8.486z"/>
	</g>
	<g>
		<path fill="#414042" d="M13.633,11.361c0.042,0.162,0.067,0.33,0.067,0.506c0,1.102-0.894,1.994-1.996,1.994
			c-1.101,0-1.994-0.893-1.994-1.994c0-0.176,0.025-0.344,0.066-0.506H13.633z"/>
	</g>
	<g>
		<circle fill="#FFFFFF" cx="10.928" cy="12.227" r="0.431"/>
	</g>
	<g>
		<path fill="#FFFFFF" d="M26.938,11.361c0.023,0.166,0.04,0.333,0.04,0.506c0,1.937-1.57,3.508-3.508,3.508
			c-1.936,0-3.507-1.571-3.507-3.508c0-0.173,0.018-0.34,0.041-0.506H26.938z"/>
		<path fill="#414042" d="M23.471,15.652c-2.087,0-3.785-1.698-3.785-3.785c0-0.163,0.015-0.336,0.044-0.544
			c0.02-0.138,0.137-0.24,0.275-0.24h6.934c0.138,0,0.256,0.103,0.274,0.238c0.03,0.205,0.044,0.379,0.044,0.546
			C27.257,13.954,25.559,15.652,23.471,15.652z M20.252,11.64c-0.006,0.081-0.01,0.154-0.01,0.228c0,1.78,1.448,3.229,3.229,3.229
			c1.781,0,3.229-1.449,3.229-3.229c0-0.073-0.003-0.147-0.01-0.228H20.252z"/>
	</g>
	<g>
		<path fill="#414042" d="M25.399,11.361c0.043,0.162,0.067,0.33,0.067,0.506c0,1.102-0.893,1.994-1.996,1.994
			c-1.1,0-1.993-0.893-1.993-1.994c0-0.176,0.023-0.344,0.066-0.506H25.399z"/>
	</g>
	<g>
		<circle fill="#FFFFFF" cx="22.695" cy="12.227" r="0.431"/>
	</g>
	<g>
		<path fill="#FDE383" d="M31.301,17.473V11.18c-0.945,0-1.711-0.766-1.711-1.709c0-0.313,0.086-0.605,0.232-0.857l-7.718-4.457
			c-0.219,0.245-0.535,0.4-0.891,0.4c-0.657,0-1.192-0.533-1.192-1.193c0-0.13,0.022-0.256,0.061-0.374l-2.501-1.443v10.515h0.001
			c0.537,0,0.972,0.435,0.972,0.972c0,0.537-0.435,0.972-0.972,0.972h-0.001v1.712l13.72,7.923v-1.832
			c-0.979-0.235-1.709-1.117-1.709-2.168C29.592,18.588,30.321,17.707,31.301,17.473z M19.085,6.684c0-0.38,0.307-0.687,0.685-0.687
			c0.38,0,0.687,0.307,0.687,0.687c0,0.378-0.307,0.685-0.687,0.685C19.392,7.368,19.085,7.062,19.085,6.684z M20.161,11.972
			c0-1.821,1.477-3.297,3.298-3.297c1.82,0,3.297,1.476,3.297,3.297c0,1.821-1.477,3.298-3.297,3.298
			C21.638,15.27,20.161,13.793,20.161,11.972z M26.756,19.111c-0.658,0-1.193-0.535-1.193-1.194c0-0.658,0.535-1.192,1.193-1.192
			c0.658,0,1.192,0.534,1.192,1.192C27.948,18.576,27.414,19.111,26.756,19.111z M29.523,14.74c-0.379,0-0.686-0.307-0.686-0.686
			c0-0.378,0.307-0.685,0.686-0.685c0.378,0,0.685,0.307,0.685,0.685C30.208,14.434,29.901,14.74,29.523,14.74z"/>
		<path fill="#414042" d="M31.301,23.902c-0.047,0-0.093-0.012-0.133-0.034l-13.72-7.923c-0.082-0.048-0.132-0.136-0.132-0.229
			v-1.712c0-0.146,0.119-0.265,0.265-0.265c0.391,0,0.708-0.317,0.708-0.707c0-0.391-0.317-0.707-0.707-0.707
			c-0.146,0-0.266-0.118-0.266-0.265V1.546c0-0.095,0.05-0.183,0.132-0.23c0.082-0.047,0.184-0.047,0.266,0l2.502,1.444
			c0.108,0.063,0.158,0.194,0.118,0.313c-0.031,0.096-0.046,0.194-0.046,0.291c0,0.512,0.415,0.929,0.926,0.929
			c0.265,0,0.517-0.114,0.693-0.312c0.083-0.094,0.222-0.116,0.329-0.054l7.719,4.457c0.061,0.035,0.105,0.093,0.123,0.161
			c0.019,0.068,0.009,0.14-0.026,0.201c-0.129,0.221-0.196,0.472-0.196,0.725c0,0.797,0.647,1.444,1.445,1.444
			c0.146,0,0.265,0.119,0.265,0.265v6.292c0,0.121-0.084,0.229-0.203,0.256c-0.886,0.213-1.505,1-1.505,1.91s0.619,1.696,1.505,1.91
			c0.119,0.028,0.203,0.137,0.203,0.258v1.832c0,0.096-0.051,0.182-0.133,0.229C31.392,23.893,31.346,23.902,31.301,23.902z
			 M17.846,15.562l13.189,7.618v-1.174c-1.016-0.336-1.708-1.281-1.708-2.367s0.692-2.031,1.708-2.367v-5.844
			c-0.965-0.13-1.71-0.958-1.71-1.957c0-0.258,0.052-0.514,0.149-0.753l-7.331-4.231c-0.26,0.216-0.589,0.336-0.93,0.336
			c-0.803,0-1.457-0.654-1.457-1.459c0-0.082,0.007-0.162,0.021-0.243l-1.933-1.116v9.819c0.557,0.121,0.974,0.617,0.974,1.209
			c0,0.591-0.417,1.086-0.974,1.209v1.32H17.846z M26.756,19.376c-0.804,0-1.458-0.653-1.458-1.459c0-0.804,0.654-1.458,1.458-1.458
			c0.804,0,1.458,0.654,1.458,1.458C28.214,18.723,27.56,19.376,26.756,19.376z M26.756,16.99c-0.512,0-0.928,0.415-0.928,0.927
			c0,0.513,0.416,0.929,0.928,0.929c0.512,0,0.928-0.416,0.928-0.929C27.684,17.405,27.268,16.99,26.756,16.99z M23.459,15.534
			c-1.965,0-3.563-1.598-3.563-3.563c0-1.964,1.598-3.562,3.563-3.562c1.964,0,3.562,1.598,3.562,3.562
			C27.021,13.937,25.423,15.534,23.459,15.534z M23.459,8.939c-1.672,0-3.033,1.36-3.033,3.032c0,1.673,1.361,3.033,3.033,3.033
			s3.032-1.36,3.032-3.033C26.491,10.3,25.131,8.939,23.459,8.939z M29.523,15.006c-0.524,0-0.951-0.426-0.951-0.951
			c0-0.523,0.427-0.95,0.951-0.95c0.523,0,0.95,0.427,0.95,0.95C30.474,14.58,30.047,15.006,29.523,15.006z M29.523,13.635
			c-0.231,0-0.421,0.188-0.421,0.42s0.189,0.421,0.421,0.421s0.42-0.189,0.42-0.421S29.755,13.635,29.523,13.635z M19.77,7.633
			c-0.523,0-0.949-0.426-0.949-0.949c0-0.525,0.426-0.951,0.949-0.951c0.524,0,0.951,0.426,0.951,0.951
			C20.721,7.207,20.294,7.633,19.77,7.633z M19.77,6.263c-0.231,0-0.42,0.188-0.42,0.421c0,0.231,0.188,0.419,0.42,0.419
			s0.421-0.188,0.421-0.419C20.19,6.45,20.002,6.263,19.77,6.263z"/>
	</g>
	<g>
		<path fill="#414042" d="M23.614,22.77h-3.609c-0.129,0-0.232-0.104-0.232-0.23c0-0.129,0.104-0.232,0.232-0.232h3.609
			c0.129,0,0.231,0.104,0.231,0.232C23.846,22.665,23.743,22.77,23.614,22.77z"/>
	</g>
	<g>
		<path fill="#414042" d="M22.436,23.552h-2.431c-0.129,0-0.232-0.104-0.232-0.231c0-0.129,0.104-0.232,0.232-0.232h2.431
			c0.129,0,0.233,0.104,0.233,0.232C22.669,23.448,22.564,23.552,22.436,23.552z"/>
	</g>
	<g>
		<path fill="#414042" d="M22.436,21.986h-2.431c-0.129,0-0.232-0.104-0.232-0.23s0.104-0.232,0.232-0.232h2.431
			c0.129,0,0.233,0.104,0.233,0.232S22.564,21.986,22.436,21.986z"/>
	</g>
	<g>
		<path fill="#414042" d="M15.159,22.77h-3.61c-0.128,0-0.231-0.104-0.231-0.23c0-0.129,0.104-0.232,0.231-0.232h3.61
			c0.128,0,0.232,0.104,0.232,0.232C15.392,22.665,15.287,22.77,15.159,22.77z"/>
	</g>
	<g>
		<path fill="#414042" d="M15.159,23.552h-2.433c-0.127,0-0.231-0.104-0.231-0.231c0-0.129,0.104-0.232,0.231-0.232h2.433
			c0.128,0,0.232,0.104,0.232,0.232C15.391,23.448,15.287,23.552,15.159,23.552z"/>
	</g>
	<g>
		<path fill="#414042" d="M15.159,21.986h-2.433c-0.127,0-0.231-0.104-0.231-0.23s0.104-0.232,0.231-0.232h2.433
			c0.128,0,0.232,0.104,0.232,0.232S15.287,21.986,15.159,21.986z"/>
	</g>
	<g>
		<path fill="#58595B" d="M19.912,25.036L17.773,23.8v-2.487l1.487-0.859h-0.002h0.001l-1.673-0.967l-1.673,0.967h0.001h-0.003
			l1.489,0.859V23.8l-2.141,1.236c-0.089,0.051-0.119,0.165-0.067,0.254c0.05,0.089,0.164,0.119,0.254,0.067l2.14-1.235l0,0
			l2.14,1.235c0.029,0.018,0.062,0.024,0.093,0.024c0.064,0,0.128-0.032,0.162-0.093C20.032,25.201,20.001,25.087,19.912,25.036z"/>
	</g>
	<g>
		<path fill="#FDE383" d="M12.099,4.711c0.079,0.112,0.127,0.248,0.127,0.395c0,0.378-0.308,0.686-0.686,0.686
			c-0.276,0-0.513-0.164-0.62-0.398L3.863,9.466v1.696C4.729,11.27,5.4,12.008,5.4,12.902c0,0.896-0.671,1.634-1.537,1.742v5.497
			c0.379,0,0.686,0.307,0.686,0.686s-0.307,0.686-0.686,0.686v2.127l9.995-5.772c-0.125-0.154-0.2-0.351-0.2-0.563
			c0-0.494,0.401-0.896,0.895-0.896c0.381,0,0.707,0.239,0.835,0.575l2.193-1.267V1.546L12.099,4.711z M6.051,10.318
			c0-0.378,0.306-0.686,0.686-0.686c0.378,0,0.685,0.308,0.685,0.686s-0.307,0.686-0.685,0.686
			C6.356,11.004,6.051,10.696,6.051,10.318z M8.318,19.066c-0.773,0-1.399-0.625-1.399-1.397s0.626-1.397,1.399-1.397
			c0.771,0,1.397,0.625,1.397,1.397S9.09,19.066,8.318,19.066z M11.704,15.27c-1.82,0-3.297-1.476-3.297-3.298
			c0-1.821,1.477-3.297,3.297-3.297c1.821,0,3.298,1.476,3.298,3.297C15.002,13.794,13.525,15.27,11.704,15.27z M15.816,7.641
			c-0.198,0.147-0.443,0.235-0.709,0.235c-0.659,0-1.193-0.534-1.193-1.192c0-0.042,0.001-0.082,0.007-0.123
			c0.061-0.602,0.569-1.07,1.187-1.07c0.658,0,1.192,0.534,1.192,1.193C16.3,7.075,16.109,7.424,15.816,7.641z"/>
		<path fill="#414042" d="M3.863,23.902c-0.045,0-0.092-0.012-0.132-0.034c-0.082-0.048-0.133-0.136-0.133-0.229v-2.127
			c0-0.146,0.118-0.265,0.265-0.265c0.232,0,0.42-0.188,0.42-0.421s-0.188-0.421-0.42-0.421c-0.146,0-0.265-0.118-0.265-0.265
			v-5.497c0-0.135,0.099-0.247,0.231-0.263c0.744-0.094,1.305-0.729,1.305-1.479c0-0.749-0.561-1.385-1.305-1.478
			c-0.133-0.017-0.231-0.129-0.231-0.263V9.466c0-0.094,0.051-0.183,0.133-0.229l7.056-4.073c0.063-0.037,0.141-0.046,0.212-0.023
			s0.129,0.074,0.16,0.142c0.069,0.148,0.219,0.245,0.381,0.245c0.231,0,0.42-0.189,0.42-0.421c0-0.086-0.027-0.17-0.077-0.242
			c-0.044-0.061-0.059-0.137-0.043-0.209c0.017-0.073,0.062-0.136,0.127-0.173l5.481-3.165c0.082-0.048,0.184-0.048,0.266,0
			c0.082,0.047,0.132,0.135,0.132,0.229v14.17c0,0.095-0.05,0.182-0.132,0.229l-2.193,1.267c-0.067,0.038-0.147,0.046-0.222,0.02
			c-0.072-0.025-0.131-0.082-0.158-0.153c-0.094-0.243-0.329-0.406-0.588-0.406c-0.347,0-0.629,0.282-0.629,0.632
			c0,0.146,0.048,0.281,0.141,0.396c0.049,0.06,0.069,0.139,0.056,0.214c-0.015,0.077-0.061,0.143-0.129,0.184L3.997,23.87
			C3.955,23.893,3.909,23.902,3.863,23.902z M4.129,21.74v1.438l9.364-5.408c-0.065-0.146-0.1-0.308-0.1-0.469
			c0-0.641,0.52-1.16,1.159-1.16c0.373,0,0.72,0.184,0.936,0.478l1.828-1.056V2.005l-4.871,2.813
			c0.03,0.093,0.045,0.189,0.045,0.288c0,0.523-0.427,0.95-0.95,0.95c-0.271,0-0.523-0.117-0.701-0.312l-6.71,3.875v1.322
			c0.891,0.22,1.537,1.024,1.537,1.961c0,0.938-0.646,1.743-1.537,1.962v5.049c0.396,0.114,0.686,0.481,0.686,0.913
			C4.814,21.259,4.524,21.624,4.129,21.74z M8.318,19.332c-0.918,0-1.664-0.746-1.664-1.663s0.746-1.663,1.664-1.663
			c0.917,0,1.662,0.746,1.662,1.663S9.235,19.332,8.318,19.332z M8.318,16.536c-0.625,0-1.134,0.508-1.134,1.133
			s0.509,1.134,1.134,1.134s1.133-0.509,1.133-1.134S8.943,16.536,8.318,16.536z M11.704,15.534c-1.964,0-3.562-1.598-3.562-3.563
			c0-1.964,1.598-3.562,3.562-3.562c1.965,0,3.563,1.598,3.563,3.562C15.267,13.937,13.669,15.534,11.704,15.534z M11.704,8.939
			c-1.672,0-3.032,1.36-3.032,3.032c0,1.673,1.36,3.033,3.032,3.033s3.032-1.36,3.032-3.033C14.736,10.3,13.376,8.939,11.704,8.939z
			 M6.736,11.27c-0.525,0-0.951-0.427-0.951-0.951c0-0.523,0.426-0.951,0.951-0.951c0.523,0,0.949,0.428,0.949,0.951
			C7.686,10.843,7.26,11.27,6.736,11.27z M6.736,9.897c-0.232,0-0.421,0.189-0.421,0.421s0.188,0.42,0.421,0.42
			c0.231,0,0.42-0.188,0.42-0.42S6.968,9.897,6.736,9.897z M15.107,8.141c-0.805,0-1.459-0.653-1.459-1.457
			c0-0.051,0.003-0.101,0.008-0.15c0.076-0.745,0.7-1.309,1.451-1.309c0.804,0,1.457,0.654,1.457,1.459
			c0,0.458-0.221,0.896-0.591,1.17C15.721,8.042,15.421,8.141,15.107,8.141z M15.107,5.756c-0.478,0-0.875,0.356-0.924,0.831
			C14.181,6.619,14.18,6.65,14.18,6.684c0,0.512,0.415,0.927,0.928,0.927c0.199,0,0.389-0.063,0.551-0.183
			c0.239-0.177,0.376-0.449,0.376-0.744C16.034,6.172,15.619,5.756,15.107,5.756z"/>
	</g>
</g>
</svg>
