<?xml version="1.0" encoding="UTF-8"?>
<!DOCTYPE svg PUBLIC "-//W3C//DTD SVG 1.1//EN" "http://www.w3.org/Graphics/SVG/1.1/DTD/svg11.dtd">
<svg version="1.1" xmlns="http://www.w3.org/2000/svg" xmlns:xlink="http://www.w3.org/1999/xlink" x="0" y="0" width="27.968" height="28.999" viewBox="0, 0, 27.968, 28.999">
  <g id="Layer_1">
    <g>
      <path d="M25.273,1.948 L13.984,8.465 L13.983,14.435 L25.282,20.959 z" fill="#58595B"/>
      <path d="M2.694,1.948 L13.983,8.465 L13.983,14.435 L2.685,20.959 z" fill="#58595B"/>
      <path d="M13.983,14.435 L13.984,28.896 L26.506,21.666 z" fill="#E6E7E8"/>
      <path d="M13.983,14.435 L13.983,28.896 L1.462,21.666 z" fill="#FFFFFF"/>
      <path d="M13.984,14.77 L25.777,21.581 L13.984,28.389 L2.191,21.578 L13.984,14.77 M13.984,14.157 L1.131,21.578 L1.131,21.578 L13.984,28.999 L26.837,21.578 L26.837,21.578 L13.984,14.157 L13.984,14.157 z" fill="#414042"/>
      <g>
        <path d="M11.574,10.08 C11.597,10.246 11.614,10.413 11.614,10.586 C11.614,12.523 10.044,14.094 8.106,14.094 C6.169,14.094 4.599,12.523 4.599,10.586 C4.599,10.413 4.617,10.246 4.64,10.08 L11.574,10.08 z" fill="#FFFFFF"/>
        <path d="M8.106,14.371 C6.019,14.371 4.322,12.673 4.322,10.586 C4.322,10.423 4.335,10.25 4.364,10.042 C4.384,9.904 4.502,9.802 4.64,9.802 L11.574,9.802 C11.712,9.802 11.83,9.905 11.849,10.04 C11.878,10.245 11.892,10.419 11.892,10.586 C11.892,12.673 10.194,14.371 8.106,14.371 z M4.888,10.359 C4.88,10.44 4.877,10.513 4.877,10.587 C4.877,12.367 6.325,13.816 8.106,13.816 C9.887,13.816 11.335,12.367 11.335,10.587 C11.335,10.514 11.332,10.44 11.326,10.359 L4.888,10.359 z" fill="#414042"/>
      </g>
      <path d="M10.035,10.08 C10.077,10.242 10.102,10.41 10.102,10.586 C10.102,11.688 9.208,12.58 8.106,12.58 C7.005,12.58 6.112,11.687 6.112,10.586 C6.112,10.41 6.137,10.242 6.178,10.08 L10.035,10.08 z" fill="#414042"/>
      <path d="M7.761,10.946 C7.761,11.184 7.568,11.377 7.33,11.377 C7.092,11.377 6.899,11.184 6.899,10.946 C6.899,10.708 7.092,10.515 7.33,10.515 C7.568,10.515 7.761,10.708 7.761,10.946 z" fill="#FFFFFF"/>
      <g>
        <path d="M23.34,10.08 C23.363,10.246 23.38,10.413 23.38,10.586 C23.38,12.523 21.81,14.094 19.872,14.094 C17.936,14.094 16.365,12.523 16.365,10.586 C16.365,10.413 16.383,10.246 16.406,10.08 L23.34,10.08 z" fill="#FFFFFF"/>
        <path d="M19.873,14.371 C17.786,14.371 16.088,12.673 16.088,10.586 C16.088,10.423 16.103,10.25 16.132,10.042 C16.152,9.904 16.269,9.802 16.407,9.802 L23.341,9.802 C23.479,9.802 23.597,9.905 23.615,10.04 C23.645,10.245 23.659,10.419 23.659,10.586 C23.659,12.673 21.961,14.371 19.873,14.371 z M16.654,10.359 C16.648,10.44 16.644,10.513 16.644,10.587 C16.644,12.367 18.092,13.816 19.873,13.816 C21.654,13.816 23.102,12.367 23.102,10.587 C23.102,10.514 23.099,10.44 23.092,10.359 L16.654,10.359 z" fill="#414042"/>
      </g>
      <path d="M21.801,10.08 C21.844,10.242 21.868,10.41 21.868,10.586 C21.868,11.688 20.975,12.58 19.872,12.58 C18.772,12.58 17.879,11.687 17.879,10.586 C17.879,10.41 17.902,10.242 17.945,10.08 L21.801,10.08 z" fill="#414042"/>
      <path d="M19.528,10.946 C19.528,11.184 19.335,11.377 19.097,11.377 C18.859,11.377 18.666,11.184 18.666,10.946 C18.666,10.708 18.859,10.515 19.097,10.515 C19.335,10.515 19.528,10.708 19.528,10.946 z" fill="#FFFFFF"/>
      <g>
        <path d="M27.703,16.192 L27.703,9.899 C26.758,9.899 25.992,9.133 25.992,8.19 C25.992,7.877 26.078,7.585 26.224,7.333 L18.506,2.876 C18.287,3.121 17.971,3.276 17.615,3.276 C16.958,3.276 16.423,2.743 16.423,2.083 C16.423,1.953 16.445,1.827 16.484,1.709 L13.983,0.266 L13.983,10.781 L13.984,10.781 C14.521,10.781 14.956,11.216 14.956,11.753 C14.956,12.29 14.521,12.725 13.984,12.725 L13.983,12.725 L13.983,14.437 L27.703,22.36 L27.703,20.528 C26.724,20.293 25.994,19.411 25.994,18.36 C25.994,17.307 26.723,16.426 27.703,16.192 z M15.487,5.403 C15.487,5.023 15.794,4.716 16.172,4.716 C16.552,4.716 16.859,5.023 16.859,5.403 C16.859,5.781 16.552,6.088 16.172,6.088 C15.794,6.087 15.487,5.781 15.487,5.403 z M16.563,10.691 C16.563,8.87 18.04,7.394 19.861,7.394 C21.681,7.394 23.158,8.87 23.158,10.691 C23.158,12.512 21.681,13.989 19.861,13.989 C18.04,13.989 16.563,12.512 16.563,10.691 z M23.158,17.83 C22.5,17.83 21.965,17.295 21.965,16.636 C21.965,15.978 22.5,15.444 23.158,15.444 C23.816,15.444 24.35,15.978 24.35,16.636 C24.35,17.295 23.816,17.83 23.158,17.83 z M25.925,13.459 C25.546,13.459 25.239,13.152 25.239,12.773 C25.239,12.395 25.546,12.088 25.925,12.088 C26.303,12.088 26.61,12.395 26.61,12.773 C26.61,13.153 26.303,13.459 25.925,13.459 z" fill="#FDE383"/>
        <path d="M27.703,22.621 C27.656,22.621 27.61,22.609 27.57,22.587 L13.85,14.664 C13.768,14.616 13.718,14.528 13.718,14.435 L13.718,12.723 C13.718,12.577 13.837,12.458 13.983,12.458 C14.374,12.458 14.691,12.141 14.691,11.751 C14.691,11.36 14.374,11.044 13.984,11.044 C13.838,11.044 13.718,10.926 13.718,10.779 L13.718,0.265 C13.718,0.17 13.768,0.082 13.85,0.035 C13.932,-0.012 14.034,-0.012 14.116,0.035 L16.618,1.479 C16.726,1.542 16.776,1.673 16.736,1.792 C16.705,1.888 16.69,1.986 16.69,2.083 C16.69,2.595 17.105,3.012 17.616,3.012 C17.881,3.012 18.133,2.898 18.309,2.7 C18.392,2.606 18.531,2.584 18.638,2.646 L26.357,7.103 C26.418,7.138 26.462,7.196 26.48,7.264 C26.499,7.332 26.489,7.404 26.454,7.465 C26.325,7.686 26.258,7.937 26.258,8.19 C26.258,8.987 26.905,9.634 27.703,9.634 C27.849,9.634 27.968,9.753 27.968,9.899 L27.968,16.191 C27.968,16.312 27.884,16.42 27.765,16.447 C26.879,16.66 26.26,17.447 26.26,18.357 C26.26,19.267 26.879,20.053 27.765,20.267 C27.884,20.295 27.968,20.404 27.968,20.525 L27.968,22.357 C27.968,22.453 27.917,22.539 27.835,22.586 C27.794,22.612 27.748,22.621 27.703,22.621 z M14.248,14.281 L27.437,21.899 L27.437,20.725 C26.421,20.389 25.729,19.444 25.729,18.358 C25.729,17.272 26.421,16.327 27.437,15.991 L27.437,10.147 C26.472,10.017 25.727,9.189 25.727,8.19 C25.727,7.932 25.779,7.676 25.876,7.437 L18.545,3.206 C18.285,3.422 17.956,3.542 17.615,3.542 C16.812,3.542 16.158,2.888 16.158,2.083 C16.158,2.001 16.165,1.921 16.179,1.84 L14.246,0.724 L14.246,10.543 C14.803,10.664 15.22,11.16 15.22,11.752 C15.22,12.343 14.803,12.838 14.246,12.961 L14.246,14.281 L14.248,14.281 z M23.158,18.095 C22.354,18.095 21.7,17.442 21.7,16.636 C21.7,15.832 22.354,15.178 23.158,15.178 C23.962,15.178 24.616,15.832 24.616,16.636 C24.616,17.442 23.962,18.095 23.158,18.095 z M23.158,15.709 C22.646,15.709 22.23,16.124 22.23,16.636 C22.23,17.149 22.646,17.565 23.158,17.565 C23.67,17.565 24.086,17.149 24.086,16.636 C24.086,16.124 23.67,15.709 23.158,15.709 z M19.861,14.253 C17.896,14.253 16.298,12.655 16.298,10.69 C16.298,8.726 17.896,7.128 19.861,7.128 C21.825,7.128 23.423,8.726 23.423,10.69 C23.423,12.656 21.825,14.253 19.861,14.253 z M19.861,7.658 C18.189,7.658 16.828,9.018 16.828,10.69 C16.828,12.363 18.189,13.723 19.861,13.723 C21.533,13.723 22.893,12.363 22.893,10.69 C22.893,9.019 21.533,7.658 19.861,7.658 z M25.925,13.725 C25.401,13.725 24.974,13.299 24.974,12.774 C24.974,12.251 25.401,11.824 25.925,11.824 C26.448,11.824 26.875,12.251 26.875,12.774 C26.876,13.299 26.449,13.725 25.925,13.725 z M25.925,12.354 C25.694,12.354 25.504,12.542 25.504,12.774 C25.504,13.006 25.693,13.195 25.925,13.195 C26.157,13.195 26.345,13.006 26.345,12.774 C26.345,12.542 26.157,12.354 25.925,12.354 z M16.172,6.352 C15.649,6.352 15.223,5.926 15.223,5.403 C15.223,4.878 15.649,4.452 16.172,4.452 C16.696,4.452 17.123,4.878 17.123,5.403 C17.123,5.926 16.696,6.352 16.172,6.352 z M16.172,4.982 C15.941,4.982 15.752,5.17 15.752,5.403 C15.752,5.634 15.94,5.822 16.172,5.822 C16.404,5.822 16.593,5.634 16.593,5.403 C16.592,5.169 16.404,4.982 16.172,4.982 z" fill="#414042"/>
      </g>
      <path d="M20.016,21.489 L16.407,21.489 C16.278,21.489 16.175,21.385 16.175,21.259 C16.175,21.13 16.279,21.027 16.407,21.027 L20.016,21.027 C20.145,21.027 20.247,21.131 20.247,21.259 C20.248,21.384 20.145,21.489 20.016,21.489 z" fill="#414042"/>
      <path d="M18.838,22.271 L16.407,22.271 C16.278,22.271 16.175,22.167 16.175,22.04 C16.175,21.911 16.279,21.808 16.407,21.808 L18.838,21.808 C18.967,21.808 19.071,21.912 19.071,22.04 C19.071,22.167 18.966,22.271 18.838,22.271 z" fill="#414042"/>
      <path d="M18.838,20.705 L16.407,20.705 C16.278,20.705 16.175,20.601 16.175,20.475 C16.175,20.349 16.279,20.243 16.407,20.243 L18.838,20.243 C18.967,20.243 19.071,20.347 19.071,20.475 C19.071,20.603 18.966,20.705 18.838,20.705 z" fill="#414042"/>
      <path d="M11.561,21.489 L7.951,21.489 C7.823,21.489 7.72,21.385 7.72,21.259 C7.72,21.13 7.824,21.027 7.951,21.027 L11.561,21.027 C11.689,21.027 11.793,21.131 11.793,21.259 C11.794,21.384 11.689,21.489 11.561,21.489 z" fill="#414042"/>
      <path d="M11.561,22.271 L9.128,22.271 C9.001,22.271 8.897,22.167 8.897,22.04 C8.897,21.911 9.001,21.808 9.128,21.808 L11.561,21.808 C11.689,21.808 11.793,21.912 11.793,22.04 C11.793,22.167 11.689,22.271 11.561,22.271 z" fill="#414042"/>
      <path d="M11.561,20.705 L9.128,20.705 C9.001,20.705 8.897,20.601 8.897,20.475 C8.897,20.349 9.001,20.243 9.128,20.243 L11.561,20.243 C11.689,20.243 11.793,20.347 11.793,20.475 C11.793,20.603 11.689,20.705 11.561,20.705 z" fill="#414042"/>
      <path d="M16.314,23.755 L14.175,22.519 L14.175,20.032 L15.662,19.173 L15.66,19.173 L15.661,19.173 L13.988,18.206 L12.315,19.173 L12.316,19.173 L12.313,19.173 L13.802,20.032 L13.802,22.519 L11.661,23.755 C11.572,23.806 11.542,23.92 11.594,24.009 C11.644,24.098 11.758,24.128 11.848,24.076 L13.988,22.841 L13.988,22.841 L16.128,24.076 C16.157,24.094 16.19,24.1 16.221,24.1 C16.285,24.1 16.349,24.068 16.383,24.007 C16.434,23.92 16.403,23.806 16.314,23.755 z" fill="#58595B"/>
      <g>
        <path d="M8.501,3.43 C8.58,3.542 8.628,3.678 8.628,3.825 C8.628,4.203 8.32,4.511 7.942,4.511 C7.666,4.511 7.429,4.347 7.322,4.113 L0.265,8.185 L0.265,9.881 C1.131,9.989 1.802,10.727 1.802,11.621 C1.802,12.517 1.131,13.255 0.265,13.363 L0.265,18.86 C0.644,18.86 0.951,19.167 0.951,19.546 C0.951,19.925 0.644,20.232 0.265,20.232 L0.265,22.359 L10.26,16.587 C10.135,16.433 10.06,16.236 10.06,16.024 C10.06,15.53 10.461,15.128 10.955,15.128 C11.336,15.128 11.662,15.367 11.79,15.703 L13.983,14.436 L13.983,0.265 L8.501,3.43 z M2.453,9.037 C2.453,8.659 2.759,8.351 3.139,8.351 C3.517,8.351 3.824,8.659 3.824,9.037 C3.824,9.415 3.517,9.723 3.139,9.723 C2.758,9.723 2.453,9.415 2.453,9.037 z M4.72,17.785 C3.947,17.785 3.321,17.16 3.321,16.388 C3.321,15.616 3.947,14.991 4.72,14.991 C5.491,14.991 6.117,15.616 6.117,16.388 C6.117,17.16 5.492,17.785 4.72,17.785 z M8.106,13.989 C6.286,13.989 4.809,12.513 4.809,10.691 C4.809,8.87 6.286,7.394 8.106,7.394 C9.927,7.394 11.404,8.87 11.404,10.691 C11.404,12.513 9.927,13.989 8.106,13.989 z M12.218,6.36 C12.02,6.507 11.775,6.595 11.509,6.595 C10.85,6.595 10.316,6.061 10.316,5.403 C10.316,5.361 10.317,5.321 10.323,5.28 C10.384,4.678 10.892,4.21 11.51,4.21 C12.168,4.21 12.702,4.744 12.702,5.403 C12.702,5.794 12.511,6.143 12.218,6.36 z" fill="#FDE383"/>
        <path d="M0.265,22.621 C0.22,22.621 0.173,22.609 0.133,22.587 C0.051,22.539 0,22.451 0,22.358 L0,20.231 C0,20.085 0.118,19.966 0.265,19.966 C0.497,19.966 0.685,19.778 0.685,19.545 C0.685,19.312 0.497,19.124 0.265,19.124 C0.119,19.124 0,19.006 0,18.859 L0,13.362 C0,13.227 0.099,13.115 0.231,13.099 C0.975,13.005 1.536,12.37 1.536,11.62 C1.536,10.871 0.975,10.235 0.231,10.142 C0.098,10.125 0,10.013 0,9.879 L0,8.185 C0,8.091 0.051,8.002 0.133,7.956 L7.189,3.883 C7.252,3.846 7.33,3.837 7.401,3.86 C7.472,3.883 7.53,3.934 7.561,4.002 C7.63,4.15 7.78,4.247 7.942,4.247 C8.173,4.247 8.362,4.058 8.362,3.826 C8.362,3.74 8.335,3.656 8.285,3.584 C8.241,3.523 8.226,3.447 8.242,3.375 C8.259,3.302 8.304,3.239 8.369,3.202 L13.85,0.037 C13.932,-0.011 14.034,-0.011 14.116,0.037 C14.198,0.084 14.248,0.172 14.248,0.266 L14.248,14.436 C14.248,14.531 14.198,14.618 14.116,14.665 L11.923,15.932 C11.856,15.97 11.776,15.978 11.701,15.952 C11.629,15.927 11.57,15.87 11.543,15.799 C11.449,15.556 11.214,15.393 10.955,15.393 C10.608,15.393 10.326,15.675 10.326,16.025 C10.326,16.171 10.374,16.306 10.467,16.421 C10.516,16.481 10.536,16.56 10.523,16.635 C10.508,16.712 10.462,16.778 10.394,16.819 L0.399,22.589 C0.357,22.612 0.311,22.621 0.265,22.621 z M0.531,20.459 L0.531,21.897 L9.895,16.489 C9.83,16.343 9.795,16.181 9.795,16.02 C9.795,15.379 10.315,14.86 10.954,14.86 C11.327,14.86 11.674,15.044 11.89,15.338 L13.718,14.282 L13.718,0.724 L8.847,3.537 C8.877,3.63 8.892,3.726 8.892,3.825 C8.892,4.348 8.465,4.775 7.942,4.775 C7.671,4.775 7.419,4.658 7.241,4.463 L0.531,8.338 L0.531,9.66 C1.422,9.88 2.068,10.684 2.068,11.621 C2.068,12.559 1.422,13.364 0.531,13.583 L0.531,18.632 C0.927,18.746 1.217,19.113 1.217,19.545 C1.216,19.978 0.926,20.343 0.531,20.459 z M4.72,18.051 C3.802,18.051 3.056,17.305 3.056,16.388 C3.056,15.471 3.802,14.725 4.72,14.725 C5.637,14.725 6.382,15.471 6.382,16.388 C6.382,17.305 5.637,18.051 4.72,18.051 z M4.72,15.255 C4.095,15.255 3.586,15.763 3.586,16.388 C3.586,17.013 4.095,17.522 4.72,17.522 C5.345,17.522 5.853,17.013 5.853,16.388 C5.853,15.763 5.345,15.255 4.72,15.255 z M8.106,14.253 C6.142,14.253 4.544,12.655 4.544,10.69 C4.544,8.726 6.142,7.128 8.106,7.128 C10.071,7.128 11.669,8.726 11.669,10.69 C11.669,12.656 10.071,14.253 8.106,14.253 z M8.106,7.658 C6.434,7.658 5.074,9.018 5.074,10.69 C5.074,12.363 6.434,13.723 8.106,13.723 C9.778,13.723 11.138,12.363 11.138,10.69 C11.138,9.019 9.778,7.658 8.106,7.658 z M3.138,9.989 C2.613,9.989 2.187,9.562 2.187,9.038 C2.187,8.515 2.613,8.087 3.138,8.087 C3.661,8.087 4.087,8.515 4.087,9.038 C4.088,9.562 3.662,9.989 3.138,9.989 z M3.138,8.616 C2.906,8.616 2.717,8.805 2.717,9.037 C2.717,9.269 2.905,9.457 3.138,9.457 C3.369,9.457 3.558,9.269 3.558,9.037 C3.558,8.805 3.37,8.616 3.138,8.616 z M11.509,6.86 C10.704,6.86 10.05,6.207 10.05,5.403 C10.05,5.352 10.053,5.302 10.058,5.253 C10.134,4.508 10.758,3.944 11.509,3.944 C12.313,3.944 12.966,4.598 12.966,5.403 C12.966,5.861 12.745,6.299 12.375,6.573 C12.123,6.761 11.823,6.86 11.509,6.86 z M11.509,4.475 C11.031,4.475 10.634,4.831 10.585,5.306 C10.583,5.338 10.582,5.369 10.582,5.403 C10.582,5.915 10.997,6.33 11.51,6.33 C11.709,6.33 11.899,6.267 12.061,6.147 C12.3,5.97 12.437,5.698 12.437,5.403 C12.436,4.891 12.021,4.475 11.509,4.475 z" fill="#414042"/>
      </g>
    </g>
  </g>
</svg>
